<svg xmlns="http://www.w3.org/2000/svg" width="917.689" height="155.188" viewBox="0 0 917.689 155.188">
  <defs>
    <style>
      .cls-1 {
        fill: #fff;
        fill-rule: evenodd;
      }
    </style>
  </defs>
  <path id="Forma_5" data-name="Forma 5" class="cls-1" d="M98.081,636.241c2.559-13.519,8.336-30.493,17.929-37.256a55.8,55.8,0,0,1,32.939-10.139q20.893,0,32.3,11.316c7.6,7.544,10.352,25.334,7.653,39.707l-3.837,21.56q-0.214,2.775-3.2,2.775H117.7l-1.067,5.764q-2.133,10.038,2.771,15.157t15.565,5.121q15.35,0,31.341-10.674,2.769-1.921,4.051.855l7.461,12.594q1.489,2.78-.853,4.271a76.265,76.265,0,0,1-45.411,14.3q-19.4,0-31.235-11.316T92.11,669.329Zm66.092,8.75,1.28-7.257c1.419-6.83.127-18.82-3.285-22.311s-8.528-5.229-15.35-5.229a24.778,24.778,0,0,0-15.884,5.337c-4.477,3.558-7.056,15.517-8.334,22.2l-1.493,7.257h43.066Zm82.3,64.041H224.3a2.922,2.922,0,0,1-3.2-2.775L203.4,601.444q-0.428-3.2,2.773-3.2h18.974a2.927,2.927,0,0,1,3.2,2.774L239.22,683.2h0.427L282.2,591.193a3.971,3.971,0,0,1,3.628-2.347h20.68q3.834,0,2.129,3.629L250.094,706.9Q249.241,709.035,246.47,709.032Zm61.614-72.791q3.838-20.279,18.228-30.422a55.793,55.793,0,0,1,32.94-10.139q20.892,0,32.3,11.316t7.353,32.873l-3.836,21.56q-0.217,2.775-3.2,2.775H327.7l-1.068,5.764q-2.131,10.038,2.771,15.157t15.565,5.121q15.351,0,31.341-10.674,2.77-1.921,4.05.855l7.464,12.594q1.485,2.78-.854,4.271a76.264,76.264,0,0,1-45.41,14.3q-19.407,0-31.237-11.316t-8.209-30.949Zm66.091,8.75,1.28-7.257q2.13-10.245-2.986-15.477t-15.35-5.229a24.782,24.782,0,0,0-15.884,5.337q-6.716,5.337-8.632,15.369l-1.5,7.257h43.067Zm55,64.041H410.631q-3.2,0-2.559-3.2l17.909-98.622a3.879,3.879,0,0,1,2.559-3.2c7.255,1.059,27.428-8.327,41.787-8.327q21.956,0,32.832,13.237t6.822,35.008L498.9,706.257a2.927,2.927,0,0,1-3.2,2.775H477.148q-3.2,0-2.77-3.2l11.087-63.825q4.686-24.764-17.7-24.765a52.761,52.761,0,0,0-19.615,3.632l-15.776,85.385Q432.16,709.032,429.178,709.032ZM582.255,621.3h-19.83l-8.955,51.019q-2.986,17.721,11.514,17.72h7.248a2.1,2.1,0,0,1,2.134.638,3.091,3.091,0,0,1,.426,2.348l-2.56,15.157a3.338,3.338,0,0,1-2.982,2.989q-5.118.424-8.1,0.427-16.632,0-26.118-10.354T529.166,670.4l18.4-105.006a2.918,2.918,0,0,1,3.2-2.774h14.923q3.411,0,2.986,2.986l-2.832,34.562h19.615c2.133,0,2.982,1.069,2.559,3.205l-2.559,15.153A2.923,2.923,0,0,1,582.255,621.3Zm28.352,87.736H592.06q-3.411,0-2.772-3.2l18.548-104.813c0.567-1.846,1.632-2.774,3.2-2.774h18.551q3.623,0,2.771,3.416l-18.547,104.6A2.927,2.927,0,0,1,610.607,709.032ZM638.539,572.2a14.757,14.757,0,0,1-5.224,8.754,14.546,14.546,0,0,1-9.488,3.413,12.343,12.343,0,0,1-10.127-4.59,12.649,12.649,0,0,1-2.452-10.994,14.925,14.925,0,0,1,5.116-8.75,14.43,14.43,0,0,1,9.6-3.417,12.5,12.5,0,0,1,10.127,4.483Q639.815,565.583,638.539,572.2Zm81.87,128.932a73.7,73.7,0,0,1-38.163,10.462q-21.109,0-31.875-12.916t-6.929-34.9l4.689-26.9q3.411-19,17.483-30.1t33.9-11.1a54.618,54.618,0,0,1,32.832,10.674,2.87,2.87,0,0,1,.427,4.271L723.18,623q-1.708,2.139-4.266.427a37.446,37.446,0,0,0-20.68-6.191Q688,617.24,681.178,623a25.293,25.293,0,0,0-8.528,15.584l-4.688,26.9q-2.137,11.743,2.555,18.143t14.285,6.407q12.792,0,25.158-8.112,2.77-1.71,4.265,1.066l7.249,13.876A3.42,3.42,0,0,1,720.409,701.132ZM817.2,598.243h23.025c1.42,0,2.27.393,2.559,1.173s-0.074,1.675-1.068,2.67l-47.329,44.187,32.621,59.13q1.7,3.633-2.133,3.629H803.767a3.561,3.561,0,0,1-3.412-2.135L776.9,663.138,767.1,672.1l-5.969,34.154a2.926,2.926,0,0,1-3.2,2.775H739.379q-3.2,0-2.771-3.2l25.8-146.651a3.2,3.2,0,0,1,3.412-2.775h18.548q3.2,0,2.559,3.2l-13.858,78.555,40.51-38.425A4.935,4.935,0,0,1,817.2,598.243Zm27.075,38q3.84-20.279,18.229-30.422a55.805,55.805,0,0,1,32.939-10.139q20.893,0,32.3,11.316t7.356,32.873l-3.839,21.56q-0.213,2.775-3.2,2.775H863.89l-1.065,5.764q-2.136,10.038,2.771,15.157t15.565,5.121q15.347,0,31.341-10.674,2.766-1.921,4.047.855l7.463,12.594q1.491,2.78-.853,4.271a76.265,76.265,0,0,1-45.411,14.3q-19.4,0-31.233-11.316t-8.209-30.949Zm66.1,8.75,1.279-7.257q2.127-10.245-2.985-15.477t-15.35-5.229a24.782,24.782,0,0,0-15.884,5.337q-6.715,5.337-8.635,15.369l-1.492,7.257h43.067ZM1003.1,621.3H983.278l-8.954,51.019q-2.988,17.721,11.513,17.72h7.249a2.1,2.1,0,0,1,2.133.638,3.1,3.1,0,0,1,.426,2.348l-2.559,15.157a3.34,3.34,0,0,1-2.986,2.989q-5.114.424-8.1,0.427-16.626,0-26.115-10.354T950.019,670.4l17.271-96.06a2.918,2.918,0,0,1,3.2-2.774h14.923q3.405,0,2.986,2.987l-1.706,25.615h19.619q3.2,0,2.55,3.205l-2.55,15.153A2.932,2.932,0,0,1,1003.1,621.3Z" transform="translate(-91.281 -556.406)"/>
</svg>
