<svg xmlns="http://www.w3.org/2000/svg" width="18.998" height="14.876" viewBox="0 0 379.969 297.531">
  <defs>
    <style>
      .cls-1 {
        fill: #313d55;
        fill-rule: evenodd;
      }
    </style>
  </defs>
  <path id="Forma_4_copia_2" data-name="Forma 4 copia 2" class="cls-1" d="M482.145,424.166c6.312,17.325-6.069,28.429,4.785,29.959,9.217,1.3,24.486,41.3,14.323,46.326-12.211,6.038-66.545,30.044-74.718,30.966-12.439,1.4-34.784-82.567-38.126-95.318-2.785-10.611-32.441-45.615-27.794-55.592s64.043-20.916,74.629-26.151c12.2-6.033,42.055,26.405,32.478,34.716C458.4,397.163,477.5,411.41,482.145,424.166ZM516.193,409.5c-2.193-10.775-28.529-17.385-23.159-27.228s-40.163-36.657-29.766-41.182c12.492-5.437,197.53-112.34,208.5-107.016,10.973,5.3,25.064,86.456,27.714,99.382,2.209,10.757,45.382,61.479,40.218,71.231S532.087,485.85,521.257,490.563c-12.482,5.432-.987-41.687-11.875-46.793S519.009,422.806,516.193,409.5Z" transform="translate(-360.125 -233.875)"/>
</svg>
