<svg xmlns="http://www.w3.org/2000/svg" width="1871" height="1603.469" viewBox="0 0 1871 1603.469">
  <defs>
    <style>
      .cls-1 {
        fill: #313d55;
        fill-rule: evenodd;
      }
    </style>
  </defs>
  <path id="Menu_Hamburguesa_1" data-name="Menu Hamburguesa 1" class="cls-1" d="M120.748,0.761H1724.21c8.33,0,19.39-.885,26.04,1h8.01v1h5.01v1h5.01v1l7.01,1v1h3.01v1h3v1h3v1h2.01v1h3v1l4.01,1v1l5.01,1c0.33,0.668.66,1.336,1,2q3,1,6.01,2c0.33,0.668.66,1.335,1,2l4,1c0.34,0.668.67,1.336,1.01,2h2c0.67,1,1.33,2,2,3h2.01c0.66,1,1.33,2,2,3h2q3,3.505,6.01,7.011h2c0.34,0.668.67,1.336,1.01,2,1.33,1,2.67,2,4,3v2q3.51,3,7.01,6.01v2c1,0.668,2.01,1.336,3.01,2v2l3,2v2c0.67,0.334,1.34.668,2,1,0.34,1.335.67,2.671,1.01,4.006,0.66,0.334,1.33.668,2,1,0.67,2,1.33,4.007,2,6.01l2.01,1q0.495,2.5,1,5.008h1c0.33,1.335.67,2.671,1,4.006h1v3h1v2h1v3h1.01v3h1v3h1v3h1v4.007h1v5.008h1v5.008h1.01v8.013c0.95,3.394,2.33,22.343,1,27.043h-1v7.012h-1.01v6.009h-1v4.007h-1v4.006h-1v4.007h-1v3.005h-1v3h-1.01v3h-1v2h-1v3h-1q-1.005,3-2,6.01h-1v2h-1.01v2h-1c-0.67,2-1.33,4.006-2,6.009-0.67.334-1.34,0.668-2,1v2l-2.01,1v2c-0.66.334-1.33,0.668-2,1v2c-0.67.334-1.34,0.668-2,1-0.34,1-.67,2-1,3-1.01.668-2.01,1.336-3.01,2v2q-4.5,4-9.01,8.013-4.515,5.007-9.02,10.016h-2c-0.67,1-1.34,2-2,3h-2.01c-0.66,1-1.33,2-2,3h-2c-0.34.668-.67,1.336-1,2-1.01.333-2.01,0.667-3.01,1v1c-1.33.334-2.67,0.668-4,1-0.34.668-.67,1.336-1.01,2-1.33.334-2.67,0.667-4,1v1h-2.01v1l-6,2v1h-3.01v1h-2v1h-3.01v1h-2v1c-2.34.334-4.67,0.668-7.01,1-26.93,9.537-72.24,6.01-108.17,6.01H122.751v-1h-8.012v-1H108.73v-1h-5.008v-1H99.716v-1h-3v-1l-7.011-1v-1h-2v-1h-3v-1h-2v-1h-3v-1l-6.009-2v-1h-2v-1l-4.006-1c-29.316-18.407-49.638-42.81-62.1-78.126v-4.007h-1v-4.006h-1v-4.007h-1V155.01h-1V148h-1c-1.325-4.715.041-23.646,1-27.043v-8.013h1v-5.008h1v-5.008h1V98.919h1v-3h1v-3h1v-3h1v-3h1v-2h1v-3h1l1-4.006h1l1-5.008,2-1,2-6.01,2-1,1-4.006,2-1v-2l3-2v-2l3-2v-2l7.011-6.01v-2l4.006-3,1-2h2l6.009-7.011h2l2-3h2l2-3h2l1-2,4.006-1,1-2,6.009-2,1-2,5.008-1v-1l4.006-1v-1l5.008-1v-1l21.032-6.01C111.361,1.644,118.348,2.857,120.748.761Zm9.014,667.075H1675.14c28.15,0,68.47-3.078,90.14,4.006l8.01,1c26.54,9.443,50.05,22.127,65.1,43.069,1.33,1,2.67,2,4,3,0.34,1,.67,2,1.01,3,0.66,0.334,1.33.668,2,1v2c0.67,0.334,1.33.668,2,1v2c0.67,0.333,1.34.667,2,1,0.34,1,.67,2,1.01,3h1c0.33,1.335.67,2.671,1,4.007,0.67,0.333,1.33.667,2,1,0.34,1.335.67,2.671,1,4.007h1.01q0.99,3,2,6.009h1v3h1v2h1v3h1v2h1.01v3h1c0.33,2.337.67,4.675,1,7.012h1V771h1v5.008h1v5.008h1.01v8.013c0.92,3.314,2.3,21.414,1,26.042h-1v8.013h-1.01v5.008h-1V833.1h-1v4.006h-1v3.005h-1q-0.51,3.505-1,7.012h-1.01v2h-1v3h-1v2h-1v3h-1q-1.005,3-2,6.009h-1.01c-0.33,1.336-.66,2.672-1,4.007-0.67.334-1.33,0.668-2,1-0.33,1.336-.67,2.672-1,4.007l-2.01,1v2h-1c-0.33,1-.66,2-1,3-0.67.333-1.33,0.667-2,1v2c-1,.668-2.01,1.336-3.01,2v2c-1.33,1-2.67,2-4,3v2l-5.01,4.006-8.01,9.015h-2.01c-1.33,1.669-2.67,3.339-4,5.008h-2l-2.01,3h-2c-0.33.668-.67,1.335-1,2h-2.01c-0.33.668-.66,1.336-1,2l-4,1c-0.34.668-.67,1.335-1,2q-3.015,1-6.01,2v1h-2.01v1q-3,1-6.01,2v1c-31.76,14.145-81.36,11.018-127.19,11.018H155.8c-8.333,0-19.381.872-26.04-1l-19.029-1-25.039-7.011v-1h-2v-1h-3v-1l-6.009-2v-1h-2v-1l-6.009-2-1-2-4.006-1-1-2h-2l-1-2h-2l-1-2-3-1-4.006-5.008h-2L37.62,894.2l-5.008-4.006v-2l-4.006-3-1-3-2-1v-2l-2-1-1-3h-1v-2l-2-1-1-4.007-2-1L6.573,844.12v-4.007h-1v-3.005h-1V833.1h-1v-5.008h-1v-5.008h-1v-8.013h-1c-1.3-4.643.063-22.725,1-26.042v-8.013h1V776.01h1V771h1V767h1v-3h1v-4.007l10.015-23.037,2-1,1-4.007,2-1v-2h1l1-3,2-1v-2l2-1,1-3,4.006-3v-2L37.62,709.9l8.012-9.015h2l4.006-5.008h2l2-3h2l1-2h2l1-2,4.006-1,1-2,6.009-2v-1h2v-1l6.009-2v-1h3v-1h2v-1h3v-1h3v-1h3v-1h3v-1h4.006v-1h4.006v-1h5.008v-1h7.01v-1C121.713,667.712,127.167,670.1,129.762,667.836Zm-7.011,668.074H1723.21c8.03,0,18.67-.8,25.04,1l19.03,2.01v1h4v1h3.01v1h4.01v1h3v1h2v1.01h3.01v1h2v1h3.01v1q3,1,6,2v1.01q3.015,0.99,6.01,2c0.34,0.67.67,1.33,1.01,2,1.33,0.34,2.67.67,4,1,0.34,0.67.67,1.34,1,2.01h2.01c0.33,0.67.66,1.33,1,2h2c0.67,1,1.34,2,2,3.01h2.01c0.66,1,1.33,2,2,3h2q4.005,4.5,8.02,9.01,4.995,4.515,10.01,9.02v2c1,0.67,2,1.34,3.01,2.01v2c1,0.67,2,1.33,3,2v2.01c0.67,0.33,1.34.66,2,1v2c0.67,0.33,1.34.67,2.01,1,0.33,1,.66,2.01,1,3.01h1c0.67,2,1.33,4,2,6.01h1v2h1.01v2h1q0.99,3.015,2,6.01h1v3.01h1v2h1c0.67,3.01,1.34,6.01,2.01,9.02h1v4h1v4.01h1v4h1v6.01h1.01v7.02c0.95,3.38,2.32,22.34,1,27.04h-1v8.01h-1.01v5.01h-1v5.01q-3.5,10.515-7.01,21.03h-1c-0.33,1.34-.67,2.67-1,4.01h-1v3h-1v2.01c-0.67.33-1.34,0.66-2.01,1-0.67,2-1.33,4-2,6.01-0.67.33-1.34,0.67-2,1-0.34,1.33-.67,2.67-1.01,4.01-0.66.33-1.33,0.66-2,1v2c-1,.67-2,1.34-3,2v2.01c-1,.66-2.01,1.33-3.01,2v2q-3.5,3.015-7.01,6.01v2.01c-0.67.33-1.33,0.66-2,1-1,1.33-2.01,2.67-3.01,4h-2q-3,3.51-6.01,7.02h-2c-0.67,1-1.34,2-2,3-1.01.33-2.01,0.67-3.01,1-0.33.67-.67,1.34-1,2.01h-2c-0.34.66-.67,1.33-1.01,2-1.33.33-2.67,0.67-4,1-0.34.67-.67,1.34-1,2q-3.015,1.005-6.01,2.01c-0.34.66-.67,1.33-1,2-1.67.33-3.34,0.67-5.01,1v1c-1.34.34-2.67,0.67-4.01,1v1.01q-2.5.5-5.01,1v1c-28.17,12.15-78.51,8.01-118.18,8.01H141.78q-14.52-.495-29.044-1-13.019-3.51-26.04-7.01v-1h-2v-1q-6.009-2.01-12.018-4.01c-0.334-.67-0.668-1.34-1-2l-6.009-2.01c-0.334-.66-0.668-1.33-1-2-1.335-.33-2.671-0.67-4.006-1-0.334-.67-0.668-1.34-1-2h-2c-0.668-1.01-1.335-2.01-2-3.01h-2l-2-3h-2l-6.009-7.02h-2c-0.334-.66-0.668-1.33-1-2l-4.006-3v-2.01q-3.505-3-7.011-6.01v-2c-1-.67-2-1.34-3-2-0.334-1-.668-2.01-1-3.01-0.668-.33-1.335-0.67-2-1v-2c-0.668-.34-1.335-0.67-2-1-0.334-1.34-.668-2.68-1-4.01-0.668-.33-1.335-0.67-2-1q-1-3.015-2-6.01c-0.668-.34-1.336-0.67-2-1l-1-5.01h-1c-0.334-1.34-.668-2.67-1-4.01h-1l-1-5.01h-1v-3h-1v-3.01h-1v-3h-1v-3.01h-1v-4h-1l-1-10.02h-1v-8.01h-1c-1.319-4.72.035-23.65,1-27.04v-7.02h1v-6.01h1v-4h1v-4.01h1v-4h1c0.668-3.01,1.335-6.01,2-9.02h1v-2h1v-3.01h1q1-3,2-6.01h1v-2h1v-2h1q1-3.015,2-6.01c0.668-.34,1.335-0.67,2-1v-2.01h1l1-3c0.668-.34,1.335-0.67,2-1V1392c0.668-.33,1.335-0.67,2-1l1-3,3-2.01v-2l9.014-8.01,9.014-10.02h2l2-3c1-.34,2-0.67,3-1.01,0.334-.66.668-1.33,1-2h2c0.334-.67.668-1.33,1-2,1-.34,2-0.67,3-1v-1.01c1.335-.33,2.671-0.66,4.006-1,0.334-.67.668-1.33,1-2q12.518-5.505,25.039-11.02h4.006v-1h3v-1h4.006v-1h5.008v-1h6.009v-1.01h8.012v-1Z" transform="translate(0 -0.531)"/>
</svg>
